<svg xmlns="http://www.w3.org/2000/svg" viewBox="0 0 520 150" role="img" aria-labelledby="title desc"><title id="title">United American Future logo</title><desc id="desc">Patriotic torch and star emblem with UAF wordmark</desc><defs><linearGradient id="flame" x1="0" y1="0" x2="1" y2="1"><stop offset="0" stop-color="#ffffff"/><stop offset=".35" stop-color="#ff5a5f"/><stop offset="1" stop-color="#c8102e"/></linearGradient></defs><g transform="translate(8 4)"><path d="M74 4c18 24 25 42 7 62 6-20-2-27-13-36 0 16-12 23-19 33-10 15-7 31 0 42-20-11-28-29-19-48 9-18 31-26 44-53z" fill="url(#flame)"/><path d="M25 78h92l-21 22-10 42H56l-10-42z" fill="none" stroke="#fff" stroke-width="7" stroke-linejoin="round"/><path d="M71 86l7 16 17 2-13 11 4 17-15-9-15 9 4-17-13-11 17-2z" fill="#fff"/><path d="M61 142v-15M71 142v-17M81 142v-15" stroke="#fff" stroke-width="5" stroke-linecap="round"/></g><text x="132" y="104" fill="#ffffff" font-family="Arial,Helvetica,sans-serif" font-size="88" font-weight="900" letter-spacing="-3">UAF</text></svg>